#define close_width 20
#define close_height 20
static unsigned char close_bits[] = {
   0x00, 0x09, 0x00, 0x00, 0x09, 0x00, 0x80, 0x19, 0x00, 0x80, 0x19, 0x00,
   0xc0, 0x39, 0x00, 0xe0, 0x79, 0x00, 0xf0, 0xf9, 0x00, 0xfc, 0xf9, 0x03,
   0xff, 0xf9, 0x0f, 0x00, 0x00, 0x00, 0x00, 0x00, 0x00, 0xff, 0xf9, 0x0f,
   0xfc, 0xf9, 0x03, 0xf0, 0xf9, 0x00, 0xe0, 0x79, 0x00, 0xc0, 0x39, 0x00,
   0x80, 0x19, 0x00, 0x80, 0x19, 0x00, 0x00, 0x09, 0x00, 0x00, 0x09, 0x00 };
