#define close_width 20
#define close_height 20
static unsigned char close_bits[] = {
   0x80, 0x10, 0x00, 0x80, 0x10, 0x00, 0x80, 0x10, 0x00, 0xc0, 0x30, 0x00,
   0xc0, 0x30, 0x00, 0xe0, 0x70, 0x00, 0xf8, 0xf0, 0x01, 0xff, 0xf0, 0x0f,
   0x00, 0x0f, 0x00, 0x00, 0x0f, 0x00, 0x00, 0x0f, 0x00, 0x00, 0x0f, 0x00,
   0xff, 0xf0, 0x0f, 0xf8, 0xf0, 0x01, 0xe0, 0x70, 0x00, 0xc0, 0x30, 0x00,
   0xc0, 0x30, 0x00, 0x80, 0x10, 0x00, 0x80, 0x10, 0x00, 0x80, 0x10, 0x00 };
